<?xml version="1.0" standalone="no"?>
<!DOCTYPE svg PUBLIC "-//W3C//DTD SVG 20010904//EN"
 "http://www.w3.org/TR/2001/REC-SVG-20010904/DTD/svg10.dtd">
<svg version="1.0" xmlns="http://www.w3.org/2000/svg"
 width="992.000000pt" height="992.000000pt" viewBox="0 0 992.000000 992.000000"
 preserveAspectRatio="xMidYMid meet">
<metadata>
Created by potrace 1.14, written by Peter Selinger 2001-2017
</metadata>
<g transform="translate(0.000000,992.000000) scale(0.100000,-0.100000)"
fill="#000000" stroke="none">
<path d="M5106 8313 c-1 -2 -43 -5 -92 -8 -231 -12 -299 -16 -303 -21 -4 -4
-3 -58 5 -189 2 -33 6 -96 8 -140 3 -44 8 -123 10 -175 3 -52 6 -95 6 -95 1 0
10 -138 15 -240 2 -49 5 -90 5 -90 1 0 4 -53 15 -235 9 -149 14 -242 20 -340
4 -52 8 -129 11 -170 2 -41 6 -109 8 -150 3 -41 8 -122 11 -180 3 -58 8 -134
10 -170 3 -36 7 -108 10 -160 3 -52 7 -122 10 -155 2 -33 7 -107 10 -165 12
-224 15 -267 20 -340 13 -203 17 -269 21 -339 2 -42 6 -113 9 -158 3 -46 7
-120 10 -165 2 -46 7 -119 10 -163 3 -44 8 -125 11 -180 3 -55 7 -127 9 -160
2 -33 6 -103 9 -155 3 -52 8 -129 10 -170 12 -177 17 -250 21 -330 8 -143 15
-252 20 -325 2 -38 7 -117 10 -175 4 -58 8 -132 10 -165 3 -33 7 -109 10 -170
3 -60 7 -132 9 -160 3 -27 8 -104 12 -170 4 -66 8 -140 10 -165 3 -52 12 -220
19 -335 2 -44 5 -82 6 -85 0 -3 1 -20 1 -39 l1 -33 131 7 c72 4 160 9 196 11
217 11 221 12 215 45 -2 11 -7 70 -10 132 -9 164 -14 241 -20 342 -3 50 -8
128 -11 175 -3 47 -6 110 -8 140 -2 30 -6 105 -10 165 -3 61 -9 142 -11 180
-3 39 -8 113 -10 165 -3 52 -7 129 -10 170 -8 135 -15 243 -21 335 -3 50 -7
124 -9 165 -3 41 -7 111 -10 155 -3 44 -8 127 -11 185 -3 58 -7 128 -9 155 -1
28 -6 93 -9 145 -3 52 -9 136 -12 185 -2 50 -7 117 -9 150 -5 87 -15 257 -21
355 -2 47 -6 117 -9 155 -2 39 -6 117 -10 175 -3 58 -8 123 -10 145 -3 22 -7
94 -10 160 -3 66 -8 146 -10 178 -3 32 -7 108 -10 170 -4 62 -8 141 -11 177
-5 79 -12 204 -18 325 -3 50 -7 119 -10 155 -3 36 -8 115 -12 175 -3 61 -8
130 -9 155 -2 25 -6 101 -10 170 -3 69 -8 150 -11 180 -2 30 -6 98 -9 150 -3
52 -7 131 -10 175 -3 44 -8 118 -10 165 -3 47 -7 117 -10 155 -2 39 -7 124
-11 189 -3 65 -7 126 -9 135 -1 13 -15 16 -69 16 -37 0 -69 -1 -70 -2z"/>
<path d="M3595 7088 c-13 -3 -48 -9 -77 -12 -29 -3 -64 -8 -78 -10 -14 -3 -47
-8 -75 -11 -110 -13 -183 -24 -201 -30 -8 -2 -9 -19 -3 -55 4 -29 8 -55 7 -59
0 -3 1 -9 2 -13 5 -17 7 -25 14 -93 5 -38 10 -79 13 -90 2 -11 6 -36 8 -55 2
-19 6 -48 9 -65 3 -16 8 -47 11 -67 3 -21 8 -55 11 -75 3 -21 7 -58 9 -82 3
-24 7 -51 9 -60 3 -9 8 -43 12 -76 3 -33 8 -69 10 -80 3 -11 7 -36 9 -55 3
-19 7 -48 10 -65 2 -16 7 -52 11 -80 3 -27 8 -59 9 -70 2 -11 6 -42 9 -70 4
-27 9 -61 11 -75 3 -14 7 -43 10 -65 3 -22 7 -53 10 -70 2 -16 7 -48 10 -70 3
-22 7 -51 10 -65 2 -14 7 -49 10 -79 4 -30 9 -63 11 -75 6 -32 17 -107 20
-141 1 -16 3 -30 4 -30 1 0 3 -13 5 -30 2 -28 11 -86 19 -130 2 -11 7 -42 10
-70 4 -27 9 -61 11 -75 4 -25 14 -100 21 -155 2 -16 5 -41 8 -55 2 -14 7 -47
11 -75 7 -51 12 -84 20 -132 2 -16 7 -50 10 -78 3 -27 7 -61 10 -75 3 -14 7
-41 9 -60 7 -51 26 -180 32 -215 3 -16 7 -48 8 -71 2 -22 6 -49 9 -60 3 -10 8
-46 12 -79 3 -33 8 -69 11 -80 2 -11 6 -36 8 -55 13 -102 43 -313 50 -348 3
-13 8 -51 11 -85 4 -34 8 -64 10 -67 2 -3 6 -30 9 -60 3 -30 8 -64 10 -76 2
-12 7 -45 11 -75 3 -30 8 -61 10 -69 3 -8 7 -37 10 -65 6 -59 13 -112 19 -140
2 -12 8 -48 12 -80 4 -33 8 -62 9 -65 1 -3 5 -34 9 -70 5 -36 10 -74 12 -85 2
-11 7 -42 10 -70 4 -27 8 -57 9 -65 2 -8 6 -40 10 -70 4 -30 9 -66 11 -80 3
-14 7 -41 10 -60 5 -38 12 -86 20 -139 6 -35 12 -80 13 -94 1 -5 4 -6 9 -4 4
3 32 8 63 11 31 4 65 8 75 10 11 2 42 7 69 10 28 4 61 8 75 11 14 2 41 6 60 9
83 11 156 20 165 21 15 0 8 131 -11 230 -2 11 -7 40 -10 65 -3 25 -7 52 -9 60
-4 14 -14 89 -21 155 -1 17 -3 30 -4 30 -1 0 -5 23 -14 95 -3 25 -8 56 -10 70
-3 14 -7 45 -10 70 -3 25 -8 54 -10 65 -2 11 -7 45 -10 75 -4 30 -8 66 -11 80
-7 46 -33 222 -50 350 -2 14 -6 39 -9 55 -3 17 -8 53 -11 80 -3 28 -7 61 -10
75 -2 14 -7 45 -10 70 -3 25 -8 52 -10 60 -2 8 -6 42 -10 75 -3 33 -8 67 -10
75 -2 8 -7 35 -10 60 -2 25 -7 54 -9 65 -2 11 -7 47 -10 80 -4 33 -9 67 -11
75 -2 8 -6 38 -10 65 -3 28 -8 61 -10 75 -13 86 -28 189 -31 215 -4 39 -12
102 -19 140 -12 70 -15 92 -20 136 -3 26 -8 58 -10 70 -3 13 -7 47 -10 74 -3
28 -8 64 -12 80 -3 17 -7 41 -8 55 -2 14 -6 39 -9 55 -3 17 -7 56 -10 87 -3
32 -7 61 -9 65 -3 5 -8 31 -11 58 -3 28 -8 66 -11 85 -18 121 -26 180 -30 215
-3 22 -9 67 -14 100 -5 33 -12 83 -16 110 -3 28 -8 61 -10 74 -2 13 -7 45 -11
70 -4 25 -8 53 -9 61 -2 9 -6 43 -10 75 -4 33 -9 69 -11 80 -2 11 -6 40 -9 65
-3 25 -8 56 -10 70 -3 14 -7 45 -10 70 -3 25 -8 57 -10 71 -3 15 -7 44 -10 65
-13 101 -30 223 -39 274 -5 29 -16 110 -22 160 -3 19 -7 46 -9 60 -3 14 -10
63 -16 110 -6 47 -13 92 -14 100 -2 8 -4 21 -4 27 -1 13 -48 14 -96 1z"/>
<path d="M2499 6026 c-2 -2 -38 -7 -79 -11 -41 -4 -84 -9 -95 -11 -11 -2 -41
-6 -67 -9 -148 -15 -283 -32 -283 -35 0 0 -25 -3 -55 -5 -31 -2 -69 -6 -85 -9
-17 -3 -52 -8 -80 -11 -96 -10 -133 -15 -264 -31 -30 -4 -66 -8 -80 -10 -14
-1 -51 -5 -81 -9 -30 -3 -66 -8 -80 -10 -14 -2 -53 -7 -87 -10 -34 -3 -70 -7
-80 -9 -10 -2 -47 -7 -83 -11 -36 -3 -76 -8 -90 -10 -22 -3 -94 -11 -170 -20
-14 -2 -52 -6 -85 -10 -33 -5 -69 -9 -80 -10 -24 -2 -127 -14 -174 -21 -18 -2
-57 -7 -85 -9 -95 -10 -91 -8 -90 -56 1 -47 12 -194 19 -244 2 -16 7 -61 10
-100 11 -135 17 -199 30 -320 2 -22 6 -69 9 -105 4 -36 8 -85 11 -110 2 -25 7
-72 10 -105 3 -33 7 -76 10 -95 2 -19 6 -71 9 -115 4 -44 8 -90 10 -102 3 -12
7 -64 10 -116 5 -72 3 -94 -6 -94 -16 -1 -127 -14 -148 -18 -8 -2 -42 -6 -75
-9 -33 -4 -69 -9 -80 -11 -11 -2 -26 -4 -33 -4 -12 -1 -12 -6 4 -123 3 -24 7
-59 9 -78 3 -19 7 -57 10 -85 4 -27 8 -63 9 -80 2 -16 7 -55 11 -85 4 -30 8
-61 8 -67 0 -11 8 -15 27 -15 3 0 32 3 65 7 33 3 76 8 95 10 76 9 126 16 142
21 20 6 25 -9 33 -106 4 -41 8 -91 10 -110 2 -19 6 -66 9 -105 4 -38 8 -83 11
-100 2 -16 7 -66 10 -110 4 -44 9 -98 11 -120 9 -86 15 -153 19 -210 2 -33 5
-60 5 -60 2 0 17 -149 25 -245 3 -36 7 -83 10 -105 2 -22 7 -71 10 -110 4 -38
8 -90 11 -115 2 -25 7 -67 9 -95 2 -27 7 -77 10 -110 4 -33 8 -80 11 -103 2
-24 6 -47 8 -51 3 -4 36 -4 73 1 135 15 159 18 213 23 30 3 71 7 90 10 19 2
58 7 85 10 28 3 75 8 105 11 30 3 66 7 80 9 14 1 54 6 90 9 36 4 76 8 90 11
14 2 57 7 95 10 39 4 81 9 95 10 14 2 50 6 80 9 30 3 71 8 90 10 19 3 64 8
100 11 36 4 76 8 90 10 14 2 50 6 80 10 30 3 71 8 90 10 19 2 64 7 100 11 36
3 76 8 90 9 14 2 57 6 95 10 39 3 81 8 95 10 44 6 134 17 170 20 49 4 149 15
189 21 18 2 59 7 90 10 31 3 70 7 86 9 17 2 57 6 90 9 87 10 126 16 136 21 8
5 7 21 -5 110 -5 40 -13 113 -21 190 -6 51 -16 144 -20 170 -1 11 -3 30 -4 42
-1 19 -6 22 -33 18 -18 -2 -60 -6 -93 -10 -33 -3 -71 -8 -85 -10 -14 -2 -54
-6 -90 -10 -36 -3 -78 -7 -95 -9 -16 -2 -59 -7 -95 -11 -36 -3 -76 -8 -90 -10
-14 -2 -52 -7 -85 -10 -33 -3 -73 -8 -90 -10 -16 -2 -64 -7 -105 -10 -41 -4
-77 -9 -80 -10 -3 -2 -45 -6 -95 -10 -49 -4 -92 -9 -95 -10 -3 -2 -41 -6 -85
-10 -44 -4 -89 -9 -100 -11 -11 -3 -51 -6 -90 -9 -38 -2 -70 -5 -70 -6 0 -1
-9 -3 -20 -4 -11 -1 -40 -5 -65 -8 -80 -10 -163 -19 -300 -32 -36 -4 -72 -8
-80 -10 -16 -4 -155 -18 -180 -18 -32 0 -36 4 -37 31 0 25 -8 109 -18 207 -3
22 -7 67 -10 100 -7 85 -14 164 -19 210 -3 22 -8 72 -11 110 -3 39 -8 88 -10
110 -2 22 -7 74 -10 115 -3 41 -8 86 -10 100 -3 14 -7 57 -10 95 -3 39 -8 95
-11 125 -12 119 -12 119 5 124 9 3 46 8 83 11 37 3 76 8 87 10 11 2 47 6 80
10 33 3 70 8 83 10 12 3 47 7 78 10 31 3 64 7 75 9 11 2 49 7 85 11 36 4 72 8
80 10 8 2 44 6 80 9 36 4 78 9 93 12 15 3 47 7 70 9 23 1 60 6 82 9 22 3 65 8
95 12 85 8 112 12 155 18 53 8 119 16 175 22 69 8 179 22 215 28 11 2 19 8 18
14 -1 5 -5 34 -8 63 -3 30 -8 68 -10 84 -2 17 -7 57 -10 90 -4 33 -9 67 -10
75 -3 14 -14 106 -20 170 -2 14 -3 28 -4 33 -1 8 -126 -2 -220 -18 -14 -2 -54
-7 -90 -11 -36 -3 -74 -8 -84 -10 -11 -2 -45 -6 -76 -9 -31 -4 -67 -8 -81 -10
-14 -2 -52 -7 -85 -10 -33 -4 -73 -9 -90 -12 -16 -3 -46 -6 -65 -8 -39 -3
-131 -14 -170 -20 -29 -4 -123 -16 -160 -20 -14 -1 -50 -6 -80 -10 -72 -9
-105 -13 -165 -20 -27 -3 -66 -8 -85 -10 -112 -15 -185 -23 -187 -22 -4 4 -17
153 -17 199 -1 27 -3 48 -6 48 -3 0 -6 8 -6 18 -1 34 -15 200 -19 223 -2 13
-7 58 -10 99 -4 41 -8 91 -10 110 -13 141 -17 189 -19 221 -2 19 -5 39 -8 45
-14 23 9 47 48 49 56 4 156 14 179 19 11 2 43 6 70 10 85 10 159 18 185 21 36
4 131 16 160 20 14 2 56 6 93 9 38 3 71 7 75 10 4 2 39 7 77 10 39 4 84 9 100
11 17 2 56 7 87 11 32 3 70 8 85 10 16 2 53 6 83 9 56 5 110 12 145 19 11 2
52 7 90 10 39 4 81 9 95 11 14 2 50 6 80 10 194 22 181 17 175 63 -11 92 -14
110 -19 157 -6 51 -14 122 -22 185 -5 43 -13 121 -14 138 0 11 -70 18 -81 8z"/>
<path d="M7787 5514 c-1 -1 -45 -4 -97 -8 -52 -3 -104 -8 -115 -10 -11 -2 -40
-7 -65 -11 -184 -30 -318 -75 -515 -172 -214 -105 -403 -253 -541 -423 -16
-19 -31 -37 -35 -40 -10 -8 -105 -152 -125 -190 -10 -19 -21 -37 -24 -40 -15
-13 -97 -207 -115 -270 -26 -91 -56 -229 -62 -285 -9 -79 -8 -352 0 -405 4
-19 9 -53 13 -75 13 -81 59 -241 91 -315 170 -391 431 -679 803 -884 154 -85
431 -183 565 -200 11 -1 38 -6 60 -9 154 -27 433 -27 560 -1 11 2 36 6 55 9
19 3 46 7 60 10 14 4 36 8 50 11 14 3 45 12 70 20 25 9 52 17 60 19 40 9 175
64 262 107 93 47 256 151 321 206 70 59 214 207 252 258 22 30 50 67 62 82 13
15 23 33 23 40 0 6 5 12 10 12 6 0 10 6 10 14 0 8 4 16 8 18 15 6 102 189 136
288 39 110 74 263 83 359 13 130 7 341 -12 436 -22 111 -55 234 -75 280 -5 11
-21 48 -35 82 -28 69 -87 183 -116 225 -11 14 -19 31 -19 37 0 6 -4 11 -10 11
-5 0 -10 6 -10 14 0 8 -3 16 -7 18 -5 2 -28 30 -53 63 -69 93 -321 338 -364
354 -6 2 -17 10 -24 18 -20 20 -217 134 -293 170 -142 67 -400 142 -545 158
-121 13 -290 24 -297 19z m238 -556 c11 -3 38 -9 60 -13 22 -4 51 -9 65 -12
139 -25 433 -167 513 -247 9 -10 17 -15 17 -13 0 12 168 -163 206 -213 51 -68
103 -158 133 -230 28 -65 71 -190 66 -190 -2 0 1 -15 6 -32 26 -91 30 -336 6
-398 -3 -8 -8 -31 -11 -50 -3 -19 -14 -60 -25 -90 -109 -310 -337 -546 -656
-678 -346 -144 -757 -125 -1110 50 -55 27 -103 54 -107 61 -4 7 -8 8 -8 2 0
-6 -3 -6 -8 0 -4 6 -35 31 -69 56 -121 89 -221 196 -305 326 -46 71 -62 103
-60 116 1 4 -2 7 -6 7 -6 0 -41 80 -48 110 0 3 -5 16 -11 30 -51 122 -63 412
-23 561 7 24 11 44 10 44 -6 0 37 101 76 180 51 104 109 184 195 273 63 63
200 172 217 172 6 0 12 4 14 8 11 28 317 149 394 156 17 2 35 5 40 8 5 2 27 6
49 7 21 1 42 4 45 7 6 7 305 -1 335 -8z"/>
<path d="M7375 4429 c-227 -29 -324 -303 -167 -472 15 -15 51 -40 82 -55 108
-53 232 -31 319 57 185 186 26 504 -234 470z"/>
<path d="M8263 4255 c-51 -15 -112 -52 -136 -82 -10 -13 -24 -29 -31 -36 -24
-24 -48 -103 -49 -163 -1 -90 51 -189 127 -237 87 -57 208 -66 301 -23 63 28
104 67 140 132 37 65 40 175 8 244 -62 132 -223 205 -360 165z"/>
</g>
</svg>
